<svg width="100%" height="100%" viewBox="0 0 24 24" fill="none" xmlns="http://www.w3.org/2000/svg">
<path d="M14 22V18.925L19.525 13.425C19.675 13.275 19.8417 13.1667 20.025 13.1C20.2083 13.0333 20.3917 13 20.575 13C20.775 13 20.9667 13.0377 21.15 13.113C21.3333 13.1883 21.5 13.3007 21.65 13.45L22.575 14.375C22.7083 14.525 22.8127 14.6917 22.888 14.875C22.9633 15.0583 23.0007 15.2417 23 15.425C23 15.6083 22.9667 15.796 22.9 15.988C22.8333 16.18 22.725 16.3507 22.575 16.5L17.075 22H14ZM15.5 20.5H16.45L19.475 17.45L19.025 16.975L18.55 16.525L15.5 19.55V20.5ZM6 22C5.45 22 4.97933 21.8043 4.588 21.413C4.19667 21.0217 4.00067 20.5507 4 20V4C4 3.45 4.196 2.97933 4.588 2.588C4.98 2.19667 5.45067 2.00067 6 2H14L20 8V11H18V9H13V4H6V20H12V22H6ZM19.025 16.975L18.55 16.525L19.475 17.45L19.025 16.975Z" fill="currentcolor"/>
</svg>
