<svg width="100%" height="100%" viewBox="0 0 24 24" fill="none" xmlns="http://www.w3.org/2000/svg">
<g clip-path="url(#clip0_715_46152)">
<path d="M11.9984 11.9988C12.7105 11.9988 13.4065 11.7877 13.9985 11.3921C14.5905 10.9965 15.0519 10.4343 15.3244 9.77649C15.5969 9.11868 15.6682 8.39484 15.5293 7.69651C15.3904 6.99817 15.0475 6.35671 14.544 5.85325C14.0406 5.34978 13.3991 5.00691 12.7008 4.868C12.0024 4.7291 11.2786 4.80039 10.6208 5.07286C9.96296 5.34534 9.40072 5.80676 9.00515 6.39878C8.60957 6.99079 8.39844 7.68682 8.39844 8.39883C8.39939 9.35332 8.77898 10.2684 9.45391 10.9434C10.1288 11.6183 11.044 11.9979 11.9984 11.9988ZM11.9984 5.99883C12.4731 5.99883 12.9371 6.13959 13.3318 6.4033C13.7265 6.66702 14.0341 7.04185 14.2157 7.48039C14.3974 7.91893 14.4449 8.40149 14.3523 8.86705C14.2597 9.3326 14.0311 9.76024 13.6955 10.0959C13.3598 10.4315 12.9322 10.6601 12.4667 10.7527C12.0011 10.8453 11.5185 10.7978 11.08 10.6161C10.6415 10.4345 10.2666 10.1269 10.0029 9.7322C9.7392 9.33752 9.59844 8.87351 9.59844 8.39883C9.59844 7.76231 9.85129 7.15186 10.3014 6.70177C10.7515 6.25169 11.3619 5.99883 11.9984 5.99883Z" fill="#9E9FA5"/>
<path d="M12.0016 13.1992C10.5699 13.2008 9.19729 13.7702 8.18494 14.7826C7.17259 15.7949 6.60315 17.1675 6.60156 18.5992C6.60156 18.7583 6.66478 18.911 6.7773 19.0235C6.88982 19.136 7.04243 19.1992 7.20156 19.1992C7.36069 19.1992 7.5133 19.136 7.62583 19.0235C7.73835 18.911 7.80156 18.7583 7.80156 18.5992C7.80156 17.4853 8.24406 16.417 9.03171 15.6294C9.81937 14.8417 10.8877 14.3992 12.0016 14.3992C13.1155 14.3992 14.1838 14.8417 14.9714 15.6294C15.7591 16.417 16.2016 17.4853 16.2016 18.5992C16.2016 18.7583 16.2648 18.911 16.3773 19.0235C16.4898 19.136 16.6424 19.1992 16.8016 19.1992C16.9607 19.1992 17.1133 19.136 17.2258 19.0235C17.3384 18.911 17.4016 18.7583 17.4016 18.5992C17.4 17.1675 16.8305 15.7949 15.8182 14.7826C14.8058 13.7702 13.4332 13.2008 12.0016 13.1992Z" fill="#9E9FA5"/>
</g>
<circle cx="12" cy="12" r="11.3571" stroke="#9E9FA5" stroke-width="1.28571"/>
<defs>
<clipPath id="clip0_715_46152">
<rect width="14.4" height="14.4" fill="white" transform="translate(4.80078 4.79883)"/>
</clipPath>
</defs>
</svg>
