<svg width="100%" height="100%" viewBox="0 0 24 24" fill="none" xmlns="http://www.w3.org/2000/svg">
<g clip-path="url(#clip0_715_46255)">
<path d="M24 5.00017C24 2.79417 22.206 1.00017 20 1.00017C17.794 1.00017 16 2.79417 16 5.00017C16 6.86017 17.277 8.42817 19 8.87317V15.0002C19 16.6542 17.654 18.0002 16 18.0002H12.631L14.834 15.7972C15.225 15.4062 15.225 14.7742 14.834 14.3832C14.443 13.9922 13.811 13.9922 13.42 14.3832L10.879 16.9242C10.33 17.4722 10 18.0002 10 19.0002C10 20.0002 10.297 20.5852 10.879 21.1672L13.42 23.7082C13.615 23.9032 13.871 24.0012 14.127 24.0012C14.383 24.0012 14.639 23.9032 14.834 23.7082C15.225 23.3172 15.225 22.6852 14.834 22.2942L12.541 20.0012H16C18.757 20.0012 21 17.7582 21 15.0012V8.87417C22.723 8.42917 24 6.86017 24 5.00017ZM20 7.00017C18.897 7.00017 18 6.10317 18 5.00017C18 3.89717 18.897 3.00017 20 3.00017C21.103 3.00017 22 3.89717 22 5.00017C22 6.10317 21.103 7.00017 20 7.00017ZM13.204 7.12217C13.771 6.55517 14.083 5.80217 14.083 5.00017C14.083 4.19817 13.771 3.44517 13.204 2.87917L10.663 0.338172C10.272 -0.0528281 9.64 -0.0528281 9.249 0.338172C8.858 0.729172 8.858 1.36117 9.249 1.75217L11.496 4.00017H8C5.243 4.00017 3 6.24317 3 9.00017V15.1272C1.277 15.5722 0 17.1402 0 19.0002C0 21.2062 1.794 23.0002 4 23.0002C6.206 23.0002 8 21.2062 8 19.0002C8 17.1402 6.723 15.5722 5 15.1272V9.00017C5 7.34617 6.346 6.00017 8 6.00017H11.497L9.249 8.24817C8.858 8.63917 8.858 9.27117 9.249 9.66217C9.444 9.85717 9.7 9.95517 9.956 9.95517C10.212 9.95517 10.468 9.85717 10.663 9.66217L13.204 7.12217ZM6 19.0002C6 20.1032 5.103 21.0002 4 21.0002C2.897 21.0002 2 20.1032 2 19.0002C2 17.8972 2.897 17.0002 4 17.0002C5.103 17.0002 6 17.8972 6 19.0002Z" fill="#04139A"/>
</g>
<defs>
<clipPath id="clip0_715_46255">
<rect width="24" height="24" fill="white"/>
</clipPath>
</defs>
</svg>
