<svg width="100%" height="100%" viewBox="0 0 16 16" fill="none" xmlns="http://www.w3.org/2000/svg">
<path d="M9.33464 1.33301H4.0013C3.26797 1.33301 2.66797 1.93301 2.66797 2.66634V13.333C2.66797 13.6063 2.74797 13.8663 2.89464 14.0797C2.9413 14.153 3.0013 14.2197 3.0613 14.273C3.3013 14.5197 3.63464 14.6663 4.0013 14.6663H9.0213C8.66797 14.2797 8.40797 13.833 8.23464 13.333H4.0013V2.66634H8.66797V5.99967H12.0013V7.99967C12.468 7.99967 12.9146 8.07967 13.3346 8.22634V5.33301L9.33464 1.33301ZM12.0013 15.333L15.3346 12.333L13.3346 10.533L12.0013 9.33301V11.333H9.33464V13.333H12.0013V15.333Z" fill="#04139A"/>
</svg>
