<svg width="100%" height="100%" viewBox="0 0 24 24" fill="none" xmlns="http://www.w3.org/2000/svg">
<g clip-path="url(#clip0_5317_10971)">
<path d="M20.925 3.39233C20.4331 2.98102 19.8567 2.68305 19.2367 2.51958C18.6167 2.35611 17.9682 2.33114 17.3375 2.44646L13.9932 3.05371C13.2211 3.1955 12.5191 3.59273 12 4.18158C11.4795 3.59171 10.7755 3.19439 10.0015 3.05371L6.6625 2.44646C6.03176 2.33104 5.38336 2.35568 4.7632 2.51862C4.14304 2.68157 3.56628 2.97885 3.07375 3.38941C2.58121 3.79996 2.18494 4.31377 1.91298 4.89445C1.64103 5.47513 1.50004 6.1085 1.5 6.74971L1.5 16.1936C1.50005 17.218 1.8596 18.21 2.51599 18.9965C3.17238 19.7831 4.08397 20.3143 5.09188 20.4977L10.5921 21.4978C11.5231 21.667 12.4769 21.667 13.4079 21.4978L18.9125 20.4977C19.9196 20.3134 20.8302 19.7818 21.4857 18.9953C22.1412 18.2089 22.5001 17.2174 22.5 16.1936V6.74971C22.5004 6.10872 22.3595 5.47553 22.0872 4.89523C21.815 4.31492 21.4182 3.80178 20.925 3.39233ZM11.125 19.8117C11.0515 19.8012 10.978 19.789 10.9045 19.7758L5.40512 18.7766C4.80029 18.6665 4.25327 18.3477 3.85943 17.8757C3.46558 17.4036 3.24991 16.8083 3.25 16.1936V6.74971C3.25 6.05352 3.52656 5.38584 4.01884 4.89355C4.51113 4.40127 5.17881 4.12471 5.875 4.12471C6.03345 4.12509 6.19157 4.13943 6.3475 4.16758L9.69 4.78008C10.0922 4.85367 10.4559 5.06575 10.718 5.3795C10.9801 5.69325 11.1241 6.08887 11.125 6.49771V19.8117ZM20.75 16.1936C20.7501 16.8083 20.5344 17.4036 20.1406 17.8757C19.7467 18.3477 19.1997 18.6665 18.5949 18.7766L13.0955 19.7758C13.022 19.789 12.9485 19.8012 12.875 19.8117V6.49771C12.8749 6.08787 13.0187 5.69101 13.2813 5.37632C13.5438 5.06163 13.9085 4.84907 14.3118 4.77571L17.6551 4.16321C18.0338 4.09432 18.4229 4.10953 18.795 4.20776C19.1671 4.30598 19.513 4.48482 19.8083 4.73161C20.1036 4.9784 20.3411 5.28711 20.5038 5.63585C20.6665 5.9846 20.7506 6.36486 20.75 6.74971V16.1936Z" fill="currentcolor"/>
</g>
<defs>
<clipPath id="clip0_5317_10971">
<rect width="21" height="21" fill="white" transform="translate(1.5 1.5)"/>
</clipPath>
</defs>
</svg>
