<svg width="100%" height="100%" viewBox="0 0 24 24" fill="none" xmlns="http://www.w3.org/2000/svg">
<path d="M7.50417 7.78435C7.55868 6.62888 8.05607 5.53877 8.89307 4.74033C9.73007 3.94188 10.8424 3.49642 11.9992 3.49642C13.1559 3.49642 14.2683 3.94188 15.1053 4.74033C15.9423 5.53877 16.4397 6.62888 16.4942 7.78435C16.5032 7.97713 16.5861 8.15903 16.7258 8.2922C16.8655 8.42536 17.0512 8.49956 17.2442 8.49935H17.4992C18.2445 8.49931 18.9631 8.7767 19.5151 9.27748C20.0671 9.77826 20.4129 10.4666 20.4852 11.2083C21.0413 11.4028 21.5439 11.7255 21.9522 12.1504C22.0406 11.5462 22.0051 10.9303 21.8479 10.3403C21.6907 9.75023 21.4151 9.19836 21.0378 8.71825C20.6605 8.23814 20.1894 7.83984 19.6533 7.54759C19.1171 7.25535 18.5271 7.07528 17.9192 7.01835C17.6864 5.61632 16.9637 4.34239 15.8796 3.4234C14.7955 2.5044 13.4204 2 11.9992 2C10.578 2 9.20287 2.5044 8.11876 3.4234C7.03465 4.34239 6.31189 5.61632 6.07917 7.01835C4.92577 7.12466 3.85778 7.67163 3.09745 8.54542C2.33712 9.41922 1.943 10.5525 1.9971 11.7096C2.05121 12.8666 2.54938 13.9582 3.38795 14.7572C4.22651 15.5562 5.34088 16.0011 6.49917 15.9993H13.1792L13.3122 15.4923C13.4072 15.1273 13.5672 14.7923 13.7782 14.4993H6.49917C5.70352 14.4993 4.94045 14.1833 4.37785 13.6207C3.81524 13.0581 3.49917 12.295 3.49917 11.4993C3.49917 10.7037 3.81524 9.94064 4.37785 9.37803C4.94045 8.81542 5.70352 8.49935 6.49917 8.49935H6.75517C7.15517 8.49935 7.48517 8.18435 7.50417 7.78435ZM19.2492 13.4993C19.5807 13.4993 19.8986 13.631 20.1331 13.8655C20.3675 14.0999 20.4992 14.4178 20.4992 14.7493C20.4992 15.0809 20.3675 15.3988 20.1331 15.6332C19.8986 15.8677 19.5807 15.9993 19.2492 15.9993C18.9176 15.9993 18.5997 15.8677 18.3653 15.6332C18.1309 15.3988 17.9992 15.0809 17.9992 14.7493C17.9992 14.4178 18.1309 14.0999 18.3653 13.8655C18.5997 13.631 18.9176 13.4993 19.2492 13.4993ZM16.2152 15.7493H16.6862C16.9273 16.3677 17.3838 16.8781 17.9716 17.1863C18.5594 17.4946 19.2389 17.5799 19.8846 17.4266C20.5304 17.2733 21.099 16.8917 21.4855 16.3521C21.8721 15.8126 22.0505 15.1515 21.988 14.4907C21.9254 13.83 21.6261 13.2141 21.1452 12.7567C20.6642 12.2992 20.0342 12.0311 19.3711 12.0017C18.708 11.9723 18.0567 12.1836 17.5371 12.5967C17.0176 13.0097 16.665 13.5967 16.5442 14.2493H16.2142C15.7719 14.2496 15.3421 14.3965 14.9922 14.667C14.6422 14.9375 14.3918 15.3164 14.2802 15.7444L13.2672 19.6253C13.2393 19.7325 13.1766 19.8273 13.089 19.895C13.0014 19.9627 12.8939 19.9994 12.7832 19.9993H11.9882C11.9279 19.3396 11.6314 18.7237 11.1534 18.2651C10.6753 17.8064 10.0477 17.5358 9.38595 17.5029C8.72424 17.4701 8.07292 17.6772 7.55174 18.0863C7.03056 18.4953 6.67457 19.0787 6.54923 19.7293C6.42389 20.3798 6.53763 21.0538 6.86952 21.6272C7.20142 22.2006 7.72916 22.6349 8.35571 22.8502C8.98225 23.0656 9.66548 23.0475 10.2798 22.7993C10.894 22.5511 11.3981 22.0895 11.6992 21.4993H12.7832C13.2256 21.4993 13.6556 21.3525 14.0058 21.082C14.3559 20.8115 14.6064 20.4325 14.7182 20.0043L15.7312 16.1234C15.7591 16.0162 15.8217 15.9214 15.9093 15.8537C15.9969 15.786 16.1045 15.7493 16.2152 15.7493ZM7.99917 20.2493C7.99917 19.9178 8.13086 19.5999 8.36528 19.3655C8.5997 19.131 8.91765 18.9993 9.24917 18.9993C9.58069 18.9993 9.89863 19.131 10.133 19.3655C10.3675 19.5999 10.4992 19.9178 10.4992 20.2493C10.4992 20.5809 10.3675 20.8988 10.133 21.1332C9.89863 21.3677 9.58069 21.4993 9.24917 21.4993C8.91765 21.4993 8.5997 21.3677 8.36528 21.1332C8.13086 20.8988 7.99917 20.5809 7.99917 20.2493Z" fill="currentcolor"/>
</svg>