<svg width="100%" height="100%" viewBox="0 0 24 24" fill="none" xmlns="http://www.w3.org/2000/svg">
<g clip-path="url(#clip0_715_46150)">
<path d="M1.44648 13.6617L3.34648 6.82569C3.90339 4.82302 5.11374 3.06398 6.78514 1.82816C8.45654 0.592343 10.4931 -0.0493232 12.571 0.00515695C14.649 0.0596371 16.6491 0.807137 18.2534 2.12884C19.8578 3.45054 20.9743 5.27059 21.4255 7.29969L22.8965 13.9147C23.059 14.6456 23.0552 15.4037 22.8855 16.133C22.7158 16.8623 22.3844 17.5442 21.9159 18.1282C21.4474 18.7123 20.8537 19.1837 20.1786 19.5076C19.5035 19.8316 18.7643 19.9997 18.0155 19.9997H16.9015C16.672 21.13 16.0588 22.1462 15.1657 22.8761C14.2727 23.606 13.1548 24.0047 12.0015 24.0047C10.8481 24.0047 9.73024 23.606 8.83722 22.8761C7.94421 22.1462 7.331 21.13 7.10148 19.9997H6.26348C5.49267 19.9997 4.73229 19.8216 4.04173 19.4791C3.35117 19.1367 2.74913 18.6392 2.28266 18.0256C1.81619 17.4119 1.49791 16.6987 1.35268 15.9417C1.20745 15.1847 1.24022 14.4044 1.44648 13.6617ZM12.0015 21.9997C12.6197 21.9971 13.2221 21.8036 13.7262 21.4456C14.2303 21.0876 14.6114 20.5826 14.8175 19.9997H9.18548C9.39157 20.5826 9.77271 21.0876 10.2768 21.4456C10.7809 21.8036 11.3832 21.9971 12.0015 21.9997ZM3.87548 16.8147C4.15414 17.1844 4.51516 17.4839 4.92988 17.6897C5.34459 17.8954 5.80156 18.0015 6.26448 17.9997H18.0155C18.4647 17.9996 18.9082 17.8987 19.3131 17.7043C19.7181 17.5099 20.0743 17.227 20.3553 16.8766C20.6364 16.5261 20.8351 16.1171 20.9369 15.6795C21.0387 15.242 21.041 14.7872 20.9435 14.3487L19.4735 7.73269C19.1191 6.1389 18.2422 4.70929 16.982 3.67114C15.7219 2.63298 14.1509 2.04586 12.5187 2.0031C10.8866 1.96035 9.28695 2.46441 7.97418 3.43516C6.6614 4.40591 5.7108 5.78764 5.27348 7.36069L3.37348 14.1967C3.24794 14.6421 3.22794 15.1106 3.31508 15.565C3.40223 16.0195 3.5941 16.4473 3.87548 16.8147Z" fill="#9E9FA5"/>
</g>
<defs>
<clipPath id="clip0_715_46150">
<rect width="24" height="24" fill="white" transform="matrix(-1 0 0 1 24 0)"/>
</clipPath>
</defs>
</svg>
