<svg width="100%" height="100%" viewBox="0 0 24 24" fill="none" xmlns="http://www.w3.org/2000/svg">
<g clip-path="url(#clip0_715_46213)">
<path d="M21.998 24H19C18.447 24 18 23.552 18 23C18 22.448 18.447 22 19 22H21.998L16.007 11.995L9.996 22.01L13 22C13.553 22 14 22.448 14 23C14 23.552 13.553 24 13 24H10.001C9.276 24 8.628 23.625 8.267 22.996C7.906 22.368 7.908 21.619 8.273 20.992L14.276 10.967C14.634 10.355 15.28 9.985 15.999 9.985C16.718 9.985 17.363 10.356 17.727 10.977L23.719 20.983C24.091 21.619 24.093 22.368 23.732 22.997C23.371 23.626 22.722 24 21.998 24ZM17 20V17C17 16.448 16.553 16 16 16C15.447 16 15 16.448 15 17V20C15 20.552 15.447 21 16 21C16.553 21 17 20.552 17 20ZM6 23C6 22.448 5.552 22 5 22C3.346 22 2 20.654 2 19V5C2 3.346 3.346 2 5 2H19C20.654 2 22 3.346 22 5V14C22 14.552 22.447 15 23 15C23.553 15 24 14.552 24 14V5C24 2.243 21.757 0 19 0H5C2.243 0 0 2.243 0 5V19C0 21.757 2.243 24 5 24C5.552 24 6 23.552 6 23ZM5 4C4.448 4 4 4.448 4 5C4 5.552 4.448 6 5 6C5.552 6 6 5.552 6 5C6 4.448 5.552 4 5 4ZM9 4C8.448 4 8 4.448 8 5C8 5.552 8.448 6 9 6C9.552 6 10 5.552 10 5C10 4.448 9.552 4 9 4ZM16 22C15.448 22 15 22.448 15 23C15 23.552 15.448 24 16 24C16.552 24 17 23.552 17 23C17 22.448 16.552 22 16 22Z" fill="#04139A"/>
</g>
<defs>
<clipPath id="clip0_715_46213">
<rect width="24" height="24" fill="white"/>
</clipPath>
</defs>
</svg>
