<svg width="1080" height="270" viewBox="0 0 1080 270" fill="none" xmlns="http://www.w3.org/2000/svg">
<path d="M281 195C279.533 195 278.8 194.2 278.8 192.6V66.4C278.8 64.8 279.533 64 281 64H323C340.2 64 352.733 67.3333 360.6 74C368.467 80.5333 372.4 90.1333 372.4 102.8C372.4 112 370.267 119.8 366 126.2C361.867 132.467 355.667 136.8 347.4 139.2V139.6L379.6 192.2C380.133 193 380.2 193.667 379.8 194.2C379.533 194.733 378.933 195 378 195H355.8C354.6 195 353.667 194.467 353 193.4L322.8 142.8H302.8V192.6C302.8 194.2 302 195 300.4 195H281ZM302.8 123.8H322C331.2 123.8 337.867 122.2 342 119C346.267 115.8 348.4 110.667 348.4 103.6C348.4 96.6667 346.467 91.7333 342.6 88.8C338.733 85.8667 332.2 84.4 323 84.4H302.8V123.8ZM401.656 195C400.19 195 399.456 194.2 399.456 192.6V99C399.456 97.4 400.19 96.6 401.656 96.6H420.656C422.256 96.6 423.056 97.4 423.056 99V192.6C423.056 194.2 422.256 195 420.656 195H401.656ZM411.256 82.4C406.723 82.4 403.256 81.2 400.856 78.8C398.59 76.4 397.456 73.3333 397.456 69.6V66.6C397.456 62.7333 398.59 59.6667 400.856 57.4C403.256 55 406.723 53.8 411.256 53.8C415.79 53.8 419.19 55 421.456 57.4C423.723 59.6667 424.856 62.7333 424.856 66.6V69.6C424.856 73.3333 423.723 76.4 421.456 78.8C419.19 81.2 415.79 82.4 411.256 82.4ZM482.68 197.4C469.48 197.4 459.746 194.8 453.48 189.6C447.346 184.4 444.48 176.333 444.88 165.4C444.88 163.933 445.68 163.2 447.28 163.2H465.28C466.613 163.2 467.28 163.933 467.28 165.4C467.28 170.2 468.546 173.733 471.08 176C473.613 178.267 477.48 179.4 482.68 179.4C488.146 179.4 492.213 178.533 494.88 176.8C497.546 175.067 498.88 172.4 498.88 168.8C498.88 166.267 498.013 164.133 496.28 162.4C494.546 160.533 491.746 158.8 487.88 157.2L465.08 147.6C458.146 144.667 453.146 141.2 450.08 137.2C447.146 133.2 445.68 128 445.68 121.6C445.68 112.533 448.613 105.733 454.48 101.2C460.48 96.5333 469.68 94.2 482.08 94.2C494.746 94.2 504.28 96.6 510.68 101.4C517.08 106.2 520.28 113.2 520.28 122.4C520.28 123.867 519.48 124.6 517.88 124.6H499.88C498.28 124.6 497.48 123.533 497.48 121.4C497.48 118.467 496.213 116.2 493.68 114.6C491.146 112.867 487.613 112 483.08 112C478.413 112 474.946 112.8 472.68 114.4C470.413 116 469.28 118.4 469.28 121.6C469.28 124 469.946 125.867 471.28 127.2C472.746 128.533 475.546 130.067 479.68 131.8L502.48 141.4C509.546 144.333 514.613 147.867 517.68 152C520.88 156 522.48 161.267 522.48 167.8C522.48 177.533 519.08 184.933 512.28 190C505.48 194.933 495.613 197.4 482.68 197.4ZM544.82 195C543.354 195 542.62 194.2 542.62 192.6V60.8C542.62 59.2 543.354 58.4 544.82 58.4H563.82C565.42 58.4 566.22 59.2 566.22 60.8V109.6C566.22 114.133 566.154 118.733 566.02 123.4C565.887 127.933 565.754 132.533 565.62 137.2H566.02C568.287 134.267 570.554 131.333 572.82 128.4C575.22 125.467 577.62 122.6 580.02 119.8L599.22 97.8C599.754 97 600.687 96.6 602.02 96.6H625.82C627.02 96.6 627.687 96.8667 627.82 97.4C628.087 97.9333 627.887 98.6 627.22 99.4L594.02 136L630.02 192.2C630.554 193 630.687 193.667 630.42 194.2C630.154 194.733 629.487 195 628.42 195H606.22C605.02 195 604.087 194.467 603.42 193.4L577.62 152.6L566.22 164.6V192.6C566.22 194.2 565.42 195 563.82 195H544.82Z" fill="#12229D"/>
<path d="M693.945 197.4C684.212 197.4 675.679 195.533 668.345 191.8C661.012 187.933 655.345 182.333 651.345 175C647.345 167.667 645.345 158.667 645.345 148V111C645.345 95 650.012 82.8 659.345 74.4C668.812 65.8667 681.745 61.6 698.145 61.6C709.879 61.6 719.745 63.4667 727.745 67.2C735.879 70.9333 741.812 76.1333 745.545 82.8C749.412 89.3333 750.745 96.8667 749.545 105.4C749.412 107 748.612 107.8 747.145 107.8L727.745 107.6C726.145 107.6 725.412 106.8 725.545 105.2C725.812 100.4 724.945 96.3333 722.945 93C721.079 89.5333 718.145 86.9333 714.145 85.2C710.145 83.4667 705.012 82.6 698.745 82.6C689.012 82.6 681.679 85 676.745 89.8C671.812 94.4667 669.345 101.733 669.345 111.6V147.4C669.345 157.4 671.745 164.733 676.545 169.4C681.479 174.067 688.745 176.4 698.345 176.4C707.679 176.4 714.812 174.267 719.745 170C724.679 165.6 727.145 159.267 727.145 151V144.6H700.145C698.545 144.6 697.745 143.8 697.745 142.2V128.8C697.745 127.333 698.545 126.6 700.145 126.6H747.745C749.212 126.6 749.945 127.333 749.945 128.8V165.6C749.945 170.133 750.012 174.733 750.145 179.4C750.412 184.067 750.879 188.4 751.545 192.4C751.812 193.2 751.679 193.867 751.145 194.4C750.745 194.8 750.212 195 749.545 195H733.945C733.279 195 732.745 194.867 732.345 194.6C731.945 194.2 731.612 193.667 731.345 193C731.079 191.4 730.812 189.467 730.545 187.2C730.412 184.933 730.279 182.733 730.145 180.6H729.745C727.479 184.067 724.612 187.067 721.145 189.6C717.812 192.133 713.879 194.067 709.345 195.4C704.812 196.733 699.679 197.4 693.945 197.4ZM781.977 195C780.51 195 779.777 194.2 779.777 192.6V66.4C779.777 64.8 780.51 64 781.977 64H819.177C836.51 64 849.243 67.6667 857.377 75C865.643 82.2 869.777 92.8 869.777 106.8C869.777 120.533 865.577 131.067 857.177 138.4C848.777 145.6 836.177 149.2 819.377 149.2H803.777V192.6C803.777 194.2 802.977 195 801.377 195H781.977ZM803.777 128.8H818.977C828.043 128.8 834.777 127.067 839.177 123.6C843.577 120.133 845.777 114.6 845.777 107C845.777 99 843.577 93.2667 839.177 89.8C834.777 86.3333 827.977 84.6 818.777 84.6H803.777V128.8ZM933.277 197.4C916.343 197.4 904.01 194 896.277 187.2C888.543 180.267 885.143 170.667 886.077 158.4C886.343 156.133 887.277 155 888.877 155H907.677C909.41 155 910.21 156 910.077 158C910.077 164.533 912.077 169.333 916.077 172.4C920.077 175.333 926.21 176.8 934.477 176.8C942.61 176.8 948.61 175.533 952.477 173C956.477 170.333 958.477 166.267 958.477 160.8C958.477 158.267 958.01 156.067 957.077 154.2C956.143 152.2 954.543 150.467 952.277 149C950.01 147.4 946.943 145.8 943.077 144.2L914.077 131.8C907.677 129 902.543 126 898.677 122.8C894.81 119.467 892.077 115.667 890.477 111.4C888.877 107.133 888.077 102.267 888.077 96.8C888.21 85.4667 892.01 76.8 899.477 70.8C906.943 64.8 918.077 61.8 932.877 61.8C943.277 61.8 952.077 63.2667 959.277 66.2C966.61 69 972.077 73.2 975.677 78.8C979.277 84.2667 980.677 91.1333 979.877 99.4C979.61 101.8 978.81 103 977.477 103H958.477C957.677 103 957.077 102.733 956.677 102.2C956.277 101.667 956.143 100.733 956.277 99.4C956.677 94.0667 954.743 89.8667 950.477 86.8C946.343 83.6 940.41 82 932.677 82C925.877 82 920.743 83.2 917.277 85.6C913.81 88 912.077 91.6 912.077 96.4C912.077 98.9333 912.543 101.2 913.477 103.2C914.41 105.067 916.01 106.8 918.277 108.4C920.677 110 923.877 111.667 927.877 113.4L956.477 125.6C963.01 128.267 968.143 131.267 971.877 134.6C975.743 137.8 978.477 141.533 980.077 145.8C981.81 150.067 982.61 155.133 982.477 161C982.477 172.6 978.543 181.6 970.677 188C962.81 194.267 950.343 197.4 933.277 197.4Z" fill="#0693E3"/>
<path d="M993.888 58C993.376 58 993.12 57.7227 993.12 57.168V24.016H982.304C981.792 24.016 981.536 23.76 981.536 23.248V16.912C981.536 16.3573 981.792 16.08 982.304 16.08H1012.96C1013.47 16.08 1013.73 16.3573 1013.73 16.912V23.248C1013.73 23.76 1013.47 24.016 1012.96 24.016H1002.21V57.168C1002.21 57.7227 1001.93 58 1001.38 58H993.888ZM1019.47 58C1018.92 58 1018.64 57.7227 1018.64 57.168L1019.47 16.912C1019.47 16.3573 1019.75 16.08 1020.31 16.08H1029.52C1029.95 16.08 1030.25 16.2933 1030.42 16.72L1040.79 38.864L1051.03 16.72C1051.24 16.2933 1051.56 16.08 1051.99 16.08H1061.14C1061.65 16.08 1061.91 16.3573 1061.91 16.912L1062.8 57.168C1062.8 57.7227 1062.52 58 1061.97 58H1054.67C1054.12 58 1053.84 57.7227 1053.84 57.168L1053.46 39.696C1053.42 37.9467 1053.42 36.1547 1053.46 34.32C1053.54 32.4427 1053.63 30.6293 1053.71 28.88H1053.52C1052.8 30.5867 1052.03 32.336 1051.22 34.128C1050.41 35.92 1049.58 37.648 1048.72 39.312L1041.81 53.328C1041.64 53.6693 1041.32 53.84 1040.85 53.84H1040.53C1040.1 53.84 1039.8 53.6693 1039.63 53.328L1032.66 39.184C1031.85 37.52 1031.04 35.8133 1030.23 34.064C1029.42 32.272 1028.67 30.544 1027.99 28.88H1027.79C1027.88 30.6293 1027.94 32.4213 1027.99 34.256C1028.03 36.0907 1028.03 37.8613 1027.99 39.568L1027.6 57.168C1027.6 57.7227 1027.32 58 1026.77 58H1019.47Z" fill="#12229D"/>
<path d="M250 135C250 204.036 194.036 260 125 260C55.9644 260 0 204.036 0 135C0 65.9644 55.9644 10 125 10C194.036 10 250 65.9644 250 135ZM18.75 135C18.75 193.68 66.3197 241.25 125 241.25C183.68 241.25 231.25 193.68 231.25 135C231.25 76.3197 183.68 28.75 125 28.75C66.3197 28.75 18.75 76.3197 18.75 135Z" fill="url(#paint0_linear_37_152)"/>
<path d="M42.9522 53.159L138.969 120.825L110.618 149.175L42.9522 53.159Z" fill="#0693E3"/>
<path d="M206.634 216.841L110.618 149.175L138.968 120.825L206.634 216.841Z" fill="#0693E3"/>
<path d="M42.9522 216.841L110.618 120.825L138.969 149.175L42.9522 216.841Z" fill="#0693E3"/>
<path d="M206.634 53.1589L138.969 149.175L110.618 120.825L206.634 53.1589Z" fill="#0693E3"/>
<path d="M125 19.2593L145.047 135H104.953L125 19.2593Z" fill="#FFA500"/>
<path d="M125 250.741L104.953 135H145.047L125 250.741Z" fill="#FFA500"/>
<path d="M9.25926 135L125 114.953V155.047L9.25926 135Z" fill="#FFA500"/>
<path d="M240.741 135L125 155.047L125 114.953L240.741 135Z" fill="#FFA500"/>
<path d="M163.884 95.4532L135.941 146.077L113.26 123.397L163.884 95.4532Z" fill="#12229D"/>
<path d="M85.3168 174.021L113.26 123.397L135.941 146.077L85.3168 174.021Z" fill="#F5F5F5"/>
<circle cx="123.946" cy="134.737" r="11.5741" transform="rotate(-45 123.946 134.737)" fill="#FFA500"/>
<defs>
<linearGradient id="paint0_linear_37_152" x1="125" y1="10" x2="125" y2="260" gradientUnits="userSpaceOnUse">
<stop stop-color="#0693E3"/>
<stop offset="1" stop-color="#12229D"/>
</linearGradient>
</defs>
</svg>
